<svg id="Livello_1" data-name="Livello 1" xmlns="http://www.w3.org/2000/svg" viewBox="0 0 32 32"><defs><style>.cls-1{fill:#fff;}.cls-2{fill:none;stroke:#fff;stroke-linecap:round;stroke-linejoin:round;stroke-width:1.87px;}</style></defs><path class="cls-1" d="M26.31,6.82A3.41,3.41,0,1,1,28,.43a3.41,3.41,0,0,1-1.67,6.39Zm0-4.95A1.47,1.47,0,0,0,25,2.66a1.54,1.54,0,1,0,2.7,1.5h0a1.56,1.56,0,0,0-.6-2.1A1.52,1.52,0,0,0,26.32,1.87Z"/><polygon class="cls-2" points="1.55 16.04 18.52 5.6 13.71 25.88 28.54 11 28.53 31.07 19.09 16 1.55 16.04"/></svg>